<?xml version="1.0" encoding="UTF-8" standalone="no"?>
<!-- Created with Inkscape (http://www.inkscape.org/) -->

<svg
   width="200"
   height="200"
   viewBox="0 0 200 200"
   version="1.1"
   id="svg1"
   inkscape:version="1.4.2 (2aeb623e1d, 2025-05-12)"
   sodipodi:docname="Favicon.svg"
   xmlns:inkscape="http://www.inkscape.org/namespaces/inkscape"
   xmlns:sodipodi="http://sodipodi.sourceforge.net/DTD/sodipodi-0.dtd"
   xmlns="http://www.w3.org/2000/svg"
   xmlns:svg="http://www.w3.org/2000/svg">
  <sodipodi:namedview
     id="namedview1"
     pagecolor="#ffffff00"
     bordercolor="#ffffff00"
     borderopacity="0.25"
     inkscape:showpageshadow="2"
     inkscape:pageopacity="0.0"
     inkscape:pagecheckerboard="0"
     inkscape:deskcolor="#d1d1d1"
     inkscape:document-units="mm"
     inkscape:zoom="2.0233293"
     inkscape:cx="124.05297"
     inkscape:cy="119.85197"
     inkscape:window-width="1920"
     inkscape:window-height="1011"
     inkscape:window-x="0"
     inkscape:window-y="0"
     inkscape:window-maximized="1"
     inkscape:current-layer="layer1" />
  <defs
     id="defs1" />
     
     <style>
     @media (prefers-color-scheme: dark) {
        .st7 {
          fill: #fff5e3;
        }
     }
     
     @media (prefers-color-scheme: light) {
        .st7 {
          fill: #393139;
        }
     }
     </style>
     
     
  <g
     inkscape:label="Layer 1"
     inkscape:groupmode="layer"
     id="layer1">
    <g
       id="g1"
       transform="matrix(1.1149623,0,0,1.1149623,-106.08766,19.219465)">
      <path
         class="st7"
         d="m 153.08858,103.02315 c 0,0 3.78222,-2.39496 6.83154,-4.135565 3.04933,-1.740603 5.37886,-2.329529 7.99631,-1.675167 2.61745,0.654362 5.66677,1.531207 7.40738,1.531207 1.7406,0 2.61744,0.929194 1.08624,1.557385 -1.53121,0.62818 -3.04933,4.4104 -4.35805,3.23255 -4.13557,-3.703694 -4.78993,-4.515103 -8.06174,-3.12786 -3.27181,1.38725 -2.39497,3.57282 -6.32114,3.35034 -3.92617,-0.22248 -7.5906,1.15168 -4.58054,-0.73289 z"
         id="path50"
         style="fill:#393139;stroke-width:1.30872" />
      <path
         class="st7"
         d="m 158.48053,104.72449 c 0,0 0.47114,0.4188 0.23557,1.37416 -0.27483,1.09933 -0.65436,1.17786 -0.57584,1.91074 0.0785,0.73289 0.37953,0.94228 2.12013,2.02852 1.7406,1.08624 3.2849,2.02853 4.33188,2.39497 0.75906,0.27483 2.14631,0.68053 2.65671,-0.11779 0.5104,-0.79832 0.95537,-1.97617 1.68825,-2.99697 0.73289,-1.02081 1.16477,-1.37416 1.53121,-1.96309 0.36644,-0.58893 0.57584,-1.37416 0.5104,-0.22248 -0.0654,1.15167 0,2.251 -0.73288,3.04932 -0.73289,0.79832 -1.0339,1.15168 -1.46577,1.74061 -0.43188,0.58892 -1.06007,2.30335 -1.55739,2.52583 -0.49731,0.22249 -1.17785,-0.19631 -4.38422,-1.58355 -3.19329,-1.37416 -5.52282,-2.39497 -6.60906,-3.33725 -1.08624,-0.94228 -1.59664,-1.88456 -1.2302,-2.98389 0.36644,-1.09933 1.29564,-1.45268 1.81913,-1.87147 0.301,-0.24866 1.1255,-0.51041 1.68825,0.0131 z"
         id="path51"
         style="fill:#393139;stroke-width:1.30872" />
      <path
         class="st7"
         d="m 168.26978,101.40034 c 0,0 -0.39261,0.78523 -0.98154,1.29563 -0.58893,0.5104 -1.09933,0.32718 -2.70906,-0.0393 -1.60973,-0.36644 -2.27718,-0.37953 -2.48657,0.13087 -0.2094,0.5104 0.18322,1.57047 0.82449,1.63591 0.64128,0.0654 1.93691,0.64127 2.59128,0.78523 0.65436,0.14396 1.81912,0.13087 2.47348,-0.44496 0.65437,-0.57584 1.37416,-0.57584 1.2302,-0.22249 -0.14396,0.35336 -0.5104,1.8453 -2.10704,2.14631 -1.59664,0.30101 -2.13322,0.91611 -3.58591,0.19631 -1.45268,-0.7198 -2.42113,-0.90302 -2.49966,-1.70134 -0.0785,-0.79832 -0.0916,-3.03624 0.34027,-3.46812 0.43188,-0.43188 1.6359,-2.18557 3.21946,-2.251006 1.58356,-0.06544 4.03087,-0.615101 3.6906,1.936916 z"
         id="path52"
         style="fill:#393139;stroke-width:1.30872" />
      <path
         class="st7"
         d="m 159.4359,95.563426 c 0,0 1.59664,-2.067784 4.9208,-5.051675 3.32416,-2.98389 6.29496,-4.057044 8.62449,-4.384225 2.39496,-0.327181 3.91308,2.028522 4.21409,2.905367 0.30101,0.876845 0.0785,2.067784 -0.68054,1.204026 -0.75906,-0.863758 -1.30872,-2.51275 -2.61744,-2.394965 -1.30873,0.117786 -4.1094,0.431879 -4.67215,2.394965 -0.56275,1.963086 0.34027,2.51275 0,3.376508 -0.34027,0.863758 -2.09396,2.185569 -3.1802,2.290267 -1.08624,0.104698 -1.20402,-0.327181 -1.96308,-0.876845 -0.75906,-0.549664 -0.24866,-0.876845 -3.07551,1.308724 -2.82684,2.185569 -3.6906,1.949999 -1.59664,-0.772147 z"
         id="path53"
         style="fill:#393139;stroke-width:1.30872" />
      <path
         class="st7"
         d="m 154.85536,110.94093 c 0.58893,0.39262 2.98389,2.29027 6.16409,3.59899 3.1802,1.30873 3.72987,2.29027 6.22953,1.41343 2.49966,-0.87685 4.35805,-1.96309 5.44429,-3.599 1.08624,-1.6359 2.06778,-1.11241 0.65436,1.51812 -1.41342,2.63054 -2.94463,5.67987 -4.68523,6.76611 -1.7406,1.08624 -3.96543,2.18557 -7.64295,-0.43188 -3.6906,-2.61745 -3.6906,-4.60671 -4.77684,-6.33423 -1.08624,-1.72751 -3.04933,-4.05704 -1.38725,-2.93154 z"
         id="path54"
         style="fill:#393139;stroke-width:1.30872" />
      <path
         class="st7"
         d="m 152.43422,99.934564 c -0.4057,-0.366443 3.80839,-3.27181 4.03087,-4.78993 0.22249,-1.51812 0.19631,-2.290267 1.72752,-5.012413 1.54429,-2.722146 2.89228,-5.11711 4.72449,-6.753015 1.83222,-1.635905 2.42114,-2.067784 0,1.635905 -2.42114,3.703688 -3.93926,5.758385 -3.93926,7.459726 0,1.701342 -0.87684,2.905368 -1.7406,3.991609 -0.86376,1.08624 -3.80839,4.358054 -4.78993,3.494293 v -0.02618 z"
         id="path55"
         style="fill:#393139;stroke-width:1.30872" />
      <path
         class="st7"
         d="m 171.39763,92.46175 c 1.57047,-0.418792 5.49664,0.196309 6.16409,0.824496 0.66745,0.628188 0.40571,2.198657 0.0654,2.853019 -0.34027,0.654362 -1.21711,1.282549 -1.15168,0.130872 0.0785,-1.164764 0.41879,-1.51812 -0.44496,-1.963086 -0.86376,-0.444966 -2.74832,-0.654362 -3.76913,-0.876845 -1.0208,-0.222483 -1.96309,-0.680537 -0.87684,-0.968456 z"
         id="path56"
         style="fill:#393139;stroke-width:1.30872" />
      <path
         class="st7"
         d="m 142.47483,120.14126 c 0,0 -0.77214,-1.87147 -3.42885,-1.87147 -2.65671,0 -2.78759,0.52349 -4.71141,-0.0524 -1.92382,-0.57584 -5.54899,-0.43188 -5.91543,-2.14631 -0.36645,-1.72751 0.92919,-3.23255 2.40805,-3.62516 1.47886,-0.39262 3.54664,-1.08625 3.40268,0.11778 -0.14396,1.20403 -0.79832,1.21711 0.99463,1.21711 1.79295,0 6.67449,-0.14396 8.00939,-0.28792 1.3349,-0.14395 5.32651,0.57584 6.51745,2.72215 1.19094,2.14631 3.80838,7.17181 3.38959,7.5906 -0.41879,0.41879 -3.38959,-5.26107 -4.7114,-6.21644 -1.3349,-0.95537 -2.76141,-2.01543 -3.20638,-1.00772 -0.44496,1.00772 0.53658,0.73289 2.01544,3.25873 1.47886,2.52583 3.4812,6.64831 3.4812,8.93858 0,2.29027 1.40034,3.75604 1.55739,6.20335 0.14396,2.43423 -0.17014,6.26879 -0.77215,6.64832 -0.78524,0.48423 -2.01544,-0.96845 -2.1594,-5.26107 -0.14396,-4.3057 -6.83154,-16.22818 -6.83154,-16.22818 z"
         id="path57"
         style="fill:#393139;stroke-width:1.30872" />
      <path
         class="st7"
         d="m 129.57081,94.647319 c 0,0 1.2302,3.533555 2.46041,2.460401 1.2302,-1.073153 1.5312,0.183222 3.04932,0 1.51812,-0.183221 4.84228,1.766778 5.36577,0 0.52349,-1.766777 -1.04698,-3.520467 0,-6.151002 1.04698,-2.630536 2.53893,-7.197982 4.42349,-9.291941 1.88456,-2.093958 7.11946,-8.244961 9.76308,-9.475162 2.64362,-1.2302 3.70369,-2.107045 8.08791,-2.107045 4.38423,0 8.95168,1.2302 10.8755,2.277179 1.92382,1.04698 5.44429,2.983891 7.01476,5.444292 0,0 1.2302,1.230201 1.32181,0 0.0916,-1.2302 -3.33724,-4.475836 -6.13791,-5.87617 -2.80067,-1.400335 -4.0047,-2.198657 -7.26342,-2.722146 -3.25873,-0.52349 -5.45738,-0.615101 -7.11946,-0.52349 -1.66208,0.09161 -4.21409,0.968456 -5.65369,0.968456 -1.4396,0 -2.94463,0.09161 -3.37651,0.706711 -0.43188,0.6151 -0.70671,1.583556 -1.04698,2.107045 -0.34026,0.52349 -4.56744,3.769126 -5.35268,4.829192 -0.78523,1.060066 -2.27718,2.460401 -2.98389,3.598991 -0.70671,1.13859 -1.92382,2.36879 -3.33724,3.677514 -1.41343,1.308724 -2.36879,4.017783 -4.56745,5.339594 -2.19866,1.321812 -5.78456,2.643623 -5.52282,4.750668 v 0 z"
         id="path58"
         style="fill:#393139;stroke-width:1.30872" />
      <path
         class="st7"
         d="m 178.62179,77.908739 c 0,0 -1.89765,-1.792952 -4.26644,-2.669797 -2.36879,-0.876845 -3.45503,-1.256375 -5.11711,-1.256375 -1.66208,0 -4.48892,0.680537 -5.83691,1.295637 -1.30872,0.588926 -3.04933,1.465771 -4.63288,3.049327 -1.58356,1.583556 -3.01007,4.946977 -4.12248,5.457379 -0.95537,0.444966 -1.21712,-0.6151 -0.51041,-2.015435 0.70671,-1.400335 3.24564,-5.444292 3.50738,-6.753016 0.26175,-1.308724 0.26175,-2.630535 -0.0916,-2.538924 -0.35335,0.09161 -0.39261,0.353355 -0.58892,1.491945 -0.19631,1.13859 -0.5104,1.75369 -1.97618,4.161742 -1.46577,2.408052 -1.55738,3.481206 -2.34261,5.143286 -0.78524,1.662079 -0.78524,2.970803 -2.01544,4.986238 -1.2302,2.015435 -4.90771,6.229526 -4.90771,6.229526 0,0 0.17013,0.261745 -0.83759,0.968456 -1.00771,0.706711 -2.32952,2.342616 -2.85301,2.709059 -0.52349,0.366442 -4.73758,2.918453 -5.35268,3.664423 -0.6151,0.74598 -0.70672,1.17786 -2.3688,1.87148 -1.66207,0.69362 -2.53892,0.6151 -2.98389,1.75369 -0.44496,1.13859 -1.58355,2.53892 0,3.33725 1.58356,0.79832 2.40806,2.01543 3.75604,0.6151 1.34799,-1.40034 2.30336,-2.63054 2.73524,-1.40034 0.43187,1.2302 -0.70672,1.89765 1.04697,2.04161 1.75369,0.14396 4.47584,-1.51812 4.64597,-3.36342 0.17014,-1.8453 0.35336,-2.04161 1.36108,-2.34262 1.00772,-0.301 5.22181,0.23557 5.65369,-0.64127 0.43187,-0.87685 0.0916,-1.79295 -0.52349,-3.70369 -0.6151,-1.910737 -0.52349,-2.172481 -0.17014,-3.664427 0.35336,-1.491945 -0.78523,-2.107045 -0.44496,-2.983891 0.34026,-0.876845 2.63053,-6.491271 3.67751,-7.459726 1.04698,-0.968456 1.30872,-0.09161 2.6698,-1.491946 1.36107,-1.400334 1.0208,-1.321811 1.71443,-2.538924 0.69362,-1.217114 2.19865,-3.154025 4.03087,-3.952347 1.83221,-0.798321 2.0416,-1.583556 3.96543,-2.015435 1.92382,-0.431879 2.10704,-0.798321 4.84228,-0.602013 1.95,0.14396 5.75838,2.42114 6.80536,3.140938 0.8245,0.575838 2.80067,2.538924 3.59899,3.50738 0.79833,0.968456 2.19866,4.122481 2.27718,4.907715 0.0785,0.785235 0.96846,0.09161 0.87685,-0.876845 -0.0916,-0.968456 0.20939,-1.819126 -1.13859,-3.572816 -1.34799,-1.753691 -1.71443,-2.211744 -2.42114,-2.918455 -0.70671,-0.706711 -1.68825,-1.570469 -1.68825,-1.570469 z"
         id="path59"
         style="fill:#393139;stroke-width:1.30872" />
      <path
         class="st7"
         d="m 184.83823,72.45136 c 0,0 -7.36812,-5.876171 -12.24966,-7.39429 -4.31879,-1.347986 -8.68993,-4.331877 -14.30435,-4.567447 -5.61443,-0.235571 -9.12181,-0.929194 -14.14731,1.635905 -5.0255,2.578186 -10.39127,8.009391 -13.61073,10.312745 -3.21946,2.316441 -9.5406,9.710732 -11.1765,10.81006 -1.63591,1.099328 -2.91845,1.806039 -6.20335,2.853018 -3.2849,1.04698 -5.26107,1.753691 -5.0255,3.154025 0.23557,1.400335 -1.28255,2.630536 1.51812,4.4104 2.80067,1.779865 4.33187,0.497315 5.37885,2.486576 1.04698,1.98926 -0.70671,3.821474 1.63591,6.530528 2.34261,2.70906 9.35737,4.1094 11.34664,2.47349 1.98926,-1.6359 4.34496,-1.1255 2.52583,-3.36342 -1.81912,-2.251003 -3.10167,-3.049325 -2.99698,-4.698317 0.1047,-1.648992 -1.6359,-2.342616 0.58893,-4.685232 2.22483,-2.342616 1.87148,-2.107045 8.4151,-10.064087 0,0 2.57818,-2.224831 6.54362,-7.250331 3.97852,-5.025501 4.0963,-6.896976 6.20335,-8.297311 2.10704,-1.400334 2.40805,-2.107045 5.70603,-0.929194 3.29799,1.164765 5.07785,1.400335 6.93624,1.400335 1.85839,0 3.52047,-0.23557 6.60906,0.353356 3.08859,0.588925 6.12483,1.635905 8.70301,3.036239 2.57819,1.400335 2.98389,1.51812 4.71141,3.389595 1.72751,1.871476 3.12785,4.449662 2.89228,6.321137 -0.23557,1.871476 0,4.567447 0.70671,3.507381 0.70671,-1.060067 -0.30101,-1.989261 1.89765,-2.107046 2.19866,-0.117785 4.3057,1.714428 6.29496,1.269462 1.98926,-0.444966 1.40034,-0.798321 -1.28255,-2.787582 -2.68288,-1.98926 -4.33187,-3.926172 -7.60368,-7.813082 v 0 z"
         id="path60"
         style="fill:#393139;stroke-width:1.30872" />
      <path
         class="st7"
         d="m 162.9171,78.23592 c 0,0 2.3557,-0.431879 3.59899,-0.314094 1.24329,0.117786 1.76678,0.366443 2.74832,0.615101 0.98155,0.248657 0.79832,0.314094 2.34262,0.497315 1.54429,0.183221 3.16711,0.431879 3.53355,0.811409 0.36645,0.37953 1.74061,1.60973 2.53893,2.107045 0.79832,0.497316 1.83221,1.269463 2.48657,2.107046 0.85067,1.099328 1.2302,3.180199 1.17786,3.729863 -0.17014,1.635905 -1.47886,1.400335 -1.77987,0.850671 -0.30101,-0.549664 -0.26174,-1.688254 -1.32181,-2.120133 -1.06007,-0.431879 -0.68054,-1.217113 -2.60436,-1.531207 -1.92383,-0.314094 -3.52047,-0.811409 -3.65134,-0.99463 -0.13087,-0.183222 -0.17014,-0.745973 0.0916,-0.745973 1.04698,0 1.46577,0.497315 2.60436,0.745973 1.13859,0.248657 2.13322,0.314094 3.19329,0.863758 1.06006,0.549664 1.60973,1.806039 1.85838,1.923824 0.24866,0.117785 0.9292,0 0.0654,-1.491945 -0.86376,-1.491946 -2.94463,-1.989261 -3.50738,-2.735234 -0.56275,-0.745972 0.13087,-0.510402 -1.72751,-1.321811 -1.85839,-0.811409 -1.25638,-0.916107 -2.6698,-1.099328 -1.41342,-0.183221 -2.47349,-0.431879 -3.58591,-0.798322 -1.11241,-0.366442 -0.92919,-0.418791 -2.53892,-0.353355 -1.60973,0.06544 -1.46577,-0.209396 -2.34262,-0.02617 -0.87684,0.183222 -1.37416,0 -0.5104,-0.745972 z"
         id="path61"
         style="fill:#393139;stroke-width:1.30872" />
      <path
         class="st7"
         d="m 159.16106,122.06509 c 0,0 0.58893,1.15167 1.26947,2.83993 0.68053,1.68825 0.9161,1.41342 0.99463,4.05704 0.0785,2.64362 0.54966,6.41275 1.09932,6.32114 0.54967,-0.0916 0.64128,0.37953 0.88994,-1.79295 0.24865,-2.17248 0.44496,-1.79295 0,-3.76913 -0.44497,-1.97617 -1.68826,-3.76912 -1.98926,-4.90771 -0.30101,-1.13859 -1.96309,-3.7953 -2.25101,-2.74832 z"
         id="path62"
         style="fill:#393139;stroke-width:1.30872" />
      <path
         class="st7"
         d="m 154.21409,121.42381 c 0,0 1.43959,1.79295 2.51275,3.3896 1.07315,1.60973 1.75369,2.29026 1.75369,3.74295 0,1.45268 0.19631,3.80838 0,4.93389 -0.19631,1.1255 0.83758,2.64362 1.25637,0 0.41879,-2.64362 1.08624,-6.32114 -0.56275,-8.11409 -1.64899,-1.79295 -5.99395,-6.79228 -4.94698,-3.96543 h -0.0131 z"
         id="path63"
         style="fill:#393139;stroke-width:1.30872" />
      <path
         class="st7"
         d="m 181.94595,61.143985 c -0.96846,-0.52349 -6.49127,-2.27718 -12.06644,-4.384226 -5.57516,-2.107045 -8.72919,-3.154024 -16.62079,-3.154024 -7.89161,0 -9.82852,-0.170135 -14.73623,2.277179 -4.90772,2.460401 -8.59832,6.661405 -9.99866,8.598317 -1.40033,1.936912 5.78456,-2.866106 9.12181,-4.240266 3.33725,-1.37416 5.44429,-2.774495 9.29194,-3.12785 3.86074,-0.353356 6.49127,-1.046979 11.75234,-0.170134 5.26107,0.876845 7.19799,2.107045 14.02952,5.26107 6.84463,3.154025 17.89026,14.382877 18.76711,14.382877 0.87684,0 1.2302,-0.52349 -0.70671,-3.154025 -1.93692,-2.630535 -1.38725,-2.630535 -6.92315,-6.661405 -5.53591,-4.03087 -5.53591,-3.677514 -4.12249,-3.677514 1.41343,0 2.99698,0.170134 4.12249,1.046979 1.1255,0.876845 2.01543,1.583556 2.18556,0.968456 0.17014,-0.615101 -4.12248,-3.952347 -4.12248,-3.952347 h 0.0262 z"
         id="path64"
         style="fill:#393139;stroke-width:1.30872" />
      <path
         class="st7"
         d="m 107.91143,82.934239 c 1.75369,0 1.49195,-0.37953 6.04631,-4.070131 4.56744,-3.677515 -2.10705,1.400334 4.56744,-3.677515 6.66141,-5.090936 3.15403,-2.774495 6.13792,-4.724493 2.98389,-1.949999 5.26107,-2.264093 2.80067,0 -2.4604,2.264092 -2.80067,1.740603 -5.44429,4.724493 -2.63054,2.983891 -2.73524,2.630536 -3.82148,4.567447 -1.08624,1.923824 -0.0393,2.342616 -3.37651,3.193287 -3.33724,0.85067 -5.50972,1.897649 -8.45435,1.714428 -2.94463,-0.183221 -6.962414,-0.497315 -5.66678,-1.387247 1.30873,-0.889933 1.83222,-2.80067 4.81611,-5.352682 2.98389,-2.552011 3.11476,-3.049326 5.15637,-7.446639 2.04161,-4.397313 1.16476,-4.057044 3.7953,-6.68758 2.63053,-2.630535 7.36812,-4.214091 9.99865,-6.844626 2.63054,-2.630535 5.22181,-5.863084 5.07785,-3.860736 -0.15705,2.27718 -1.58356,5.54899 -4.03087,7.15872 -2.44731,1.609731 1.41342,0.732886 -3.84765,2.486576 -5.26107,1.75369 -3.86073,1.177851 -5.78456,2.695971 -1.92382,1.51812 -4.07013,5.902346 -5.19563,8.009391 -1.12551,2.107046 -1.46577,3.860736 -3.57282,5.614426 -2.10705,1.75369 -6.13792,3.899998 0.78523,3.899998 v 0 z"
         id="path65"
         style="fill:#393139;stroke-width:1.30872" />
      <path
         class="st7"
         d="m 128.79867,121.46307 c 0,0 -0.19631,0.62819 0.96845,1.50504 1.16477,0.87684 2.14631,1.87147 2.91846,2.15939 0.77214,0.28792 2.72214,1.5443 3.50738,2.17248 0.78523,0.62819 1.29563,0.69363 2.21174,2.08087 0.90302,1.38725 2.52584,4.01779 2.60436,4.77685 0.35336,3.95234 3.97852,4.69832 4.58054,4.50201 2.251,-0.70671 -2.01544,-9.82852 -2.53893,-11.58221 -0.52349,-1.76678 -2.5651,-6.33422 -3.33724,-6.80536 -3.23255,-2.04161 -3.78222,0.28791 -3.78222,0.79832 0,0.5104 1.16477,5.84999 -0.90302,4.07013 -2.08087,-1.79295 -2.65671,-1.72752 -3.3765,-2.85302 -0.7198,-1.1255 -3.04933,-1.88456 -2.85302,-0.81141 v 0 z"
         id="path66"
         style="fill:#393139;stroke-width:1.30872" />
      <path
         class="st7"
         d="m 119.80773,51.956742 c 0,0 -0.82449,0.497315 -2.10704,0.484228 -1.28255,-0.01309 -1.97618,0.327181 -2.68289,1.151677 -0.70671,0.824496 -3.16711,3.049327 -3.50738,3.860736 -0.34027,0.811409 -0.47114,2.394965 -1.51812,2.774495 -1.04698,0.37953 -1.11241,-0.196309 -2.08087,1.779865 -0.96845,1.976173 -2.13322,4.789929 -2.48657,5.967781 -0.35336,1.177852 -0.35336,2.342616 -1.04698,3.27181 -0.69363,0.929194 -0.9292,1.164764 -2.10705,2.107046 -1.17785,0.942281 -1.37416,1.282549 -1.79295,1.98926 -0.41879,0.706711 -0.654362,1.871476 1.32181,0 1.97617,-1.871475 2.80067,-1.98926 4.09631,-3.74295 1.29563,-1.753691 0.75906,0.444966 2.01543,-3.049327 1.25638,-3.494293 0.81141,-3.376508 2.08087,-4.894628 1.28255,-1.51812 1.62282,0.23557 3.72987,-2.918455 2.10704,-3.154024 1.98926,-3.036239 3.27181,-4.449661 1.28255,-1.413422 1.16476,-1.75369 2.80067,-2.107046 1.6359,-0.353355 4.33187,-0.785234 3.50738,-1.740603 -0.8245,-0.955368 -1.40034,-0.968456 -3.50738,-0.484228 v 0 z"
         id="path67"
         style="fill:#393139;stroke-width:1.30872" />
      <path
         class="st7"
         d="m 168.26978,101.40034 c -0.18322,1.21711 -1.40033,2.98389 -2.44731,2.1463 -1.68826,-1.3349 -2.43423,-0.81141 -2.43423,-1.83221 0,-1.02081 1.08624,-1.832215 2.43423,-1.832215 1.34798,0 2.60436,0.497315 2.44731,1.505035 v 0 z"
         id="path68"
         style="fill:#393139;stroke-width:1.30872" />
      <path
         class="st7"
         d="m 162.89093,20.966158 c 0,0 5.61442,-0.536577 11.47751,2.695971 5.86308,3.232549 9.7369,5.915433 13.61073,9.907041 3.87382,3.978521 6.56979,7.852344 10.65301,11.843952 4.08322,3.991609 7.3812,5.810735 10.36509,7.433553 2.98389,1.622817 8.79463,3.873823 9.98557,4.201004 1.19094,0.327181 2.36879,1.701341 0,1.976173 -2.36879,0.287919 -3.54664,1.269462 -5.16946,1.75369 -1.60973,0.471141 -4.20101,3.481206 -6.88389,0.798322 -2.69597,-2.695972 -5.16946,-4.659058 -5.91543,-6.425835 -0.74598,-1.766778 0.75906,-2.198656 -3.76913,-2.303354 -4.5151,-0.104698 -3.44194,2.264092 -9.47516,0.968455 -6.03322,-1.295636 -6.96241,-2.473488 -11.87013,-4.201004 -4.90771,-1.727515 -4.48892,-2.041609 -8.36274,-2.041609 -3.87383,0 -11.33355,3.873823 -13.41442,2.695971 -2.08087,-1.177851 -5.9547,-0.641274 -5.20873,-5.49664 0.75906,-4.842279 0.64128,-6.137916 4.20101,-8.938585 3.54664,-2.80067 5.11711,-4.201004 6.81845,-5.810735 1.70134,-1.60973 2.82684,-1.60973 2.09396,-2.473488 -0.73289,-0.863758 -0.62819,-0.863758 0.88993,-1.727516 1.51812,-0.863758 2.69597,-2.041609 1.40034,-2.905367 -1.29564,-0.863758 -3.54665,-0.327181 -3.44195,-0.968456 0.1047,-0.641275 2.04161,-0.968456 2.04161,-0.968456 h -0.0262 z"
         id="path93"
         style="fill:#393139;stroke-width:1.30872" />
      <path
         class="st7"
         d="m 214.28452,74.178876 c 10.69227,4.659057 38.28018,-1.387248 43.71138,-19.055022 3.01007,-12.603012 1.72752,-26.017433 -6.88389,-33.738904 -15.0765,-13.9509982 -35.12615,-8.192613 -50.38587,-7.06711 -4.73758,0.431879 -7.74765,-0.863758 -5.32651,-2.172482 3.36342,-1.806039 18.62314,-6.4520091 24.35535,-7.3026797 38.93454,-5.7976473 64.0097,35.1654137 40.54427,62.3083497 -10.11643,11.699993 -20.27213,16.097305 -38.90836,15.678513 -10.94093,-0.248657 -26.69797,-9.475161 -28.42549,-8.951672 -1.72751,0.510403 -3.89999,-2.538924 -2.63053,-4.868453 1.26946,-2.329529 -1.7406,-7.970129 0.45805,-8.781538 0.96846,-0.353355 1.62282,0.14396 2.98389,2.224831 4.31879,6.556707 18.80637,11.006369 20.49462,11.726167 z"
         id="path94"
         style="fill:#393139;stroke-width:1.30872" />
      <path
         class="st7"
         d="m 235.9439,15.97992 c -0.54966,-0.261745 -0.26174,-1.099329 0.34027,-0.942282 23.02045,5.78456 31.30468,42.271785 2.10704,47.388896 -2.1463,0.340269 -14.42213,-2.538924 -15.28589,-3.468118 -0.86376,-0.929194 1.50503,-0.02618 7.74764,-2.093959 6.24262,-2.067784 13.13959,-6.582881 15.71778,-10.456704 2.57819,-3.873823 5.41812,-13.37516 1.50503,-19.591599 -3.01006,-4.776842 -7.14563,-8.44127 -12.14496,-10.823147 v 0 z"
         id="path95"
         style="fill:#393139;stroke-width:1.30872" />
      <path
         class="st7"
         d="m 209.65164,65.632908 c 0,0 9.04328,-4.043957 11.30737,-4.148655 2.26409,-0.104698 3.97852,1.033892 11.62147,2.080871 7.64295,1.046979 12.05335,-0.837583 13.55838,0 1.50503,0.837584 -0.96846,3.337246 -6.4651,5.849996 -9.30502,4.672145 -21.27985,4.214092 -30.03521,0.955369 -10.70536,-3.716776 -8.67684,-4.829192 0,-4.724494 h 0.0131 z"
         id="path96"
         style="fill:#393139;stroke-width:1.30872" />
      <path
         class="st7"
         d="m 142.31779,28.766153 c 0.35335,-0.693624 -0.7198,-0.785234 1.64899,-2.538925 2.36879,-1.75369 3.32416,-2.447313 5.16946,-3.324158 1.8453,-0.876846 5.67986,-1.635905 4.46275,-0.955369 -1.57047,0.876845 -2.47349,0.876845 -3.20638,2.015435 -0.73288,1.13859 -2.30335,1.832214 -0.73288,1.13859 1.57047,-0.693624 3.35033,-1.832214 5.09093,-1.832214 1.74061,0 2.7745,1.046979 2.7745,1.046979 0,0 -2.70906,0.170135 -4.63288,0.916107 -1.92383,0.745973 -1.83222,0.824496 -2.97081,1.963086 -1.13859,1.13859 -2.44731,1.13859 -1.13859,1.13859 1.30873,0 3.75604,-1.13859 4.89463,-1.046979 1.13859,0.09161 -0.0916,0.170134 -1.92382,1.046979 -1.83222,0.876845 -2.97081,1.75369 -3.93926,2.879193 -0.96846,1.125503 -2.18557,2.879193 -3.06242,4.894628 -0.87684,2.015435 -1.49194,3.062414 -1.40033,5.418117 0.0916,2.355703 0.60201,4.462749 0.60201,4.894628 0,0.431879 0.60201,0.431879 0,1.400334 -0.60201,0.955369 -1.83221,2.709059 -2.09396,3.193287 -0.26174,0.484228 -1.21711,2.316442 -1.75369,1.792952 -0.53657,-0.52349 -2.53892,1.046979 -2.18557,-1.046979 0.35336,-2.093959 0,-4.632883 0.6151,-6.648318 0.6151,-2.015435 1.92383,-1.570469 1.21712,-4.109394 -0.70671,-2.538924 -2.17249,-2.093958 -1.87148,-4.803017 0.30101,-2.709058 0.47114,-4.017782 1.08624,-5.418117 0.6151,-1.400335 0.78524,-1.570469 1.30873,-1.75369 0.52349,-0.183222 2.01543,-0.261745 2.01543,-0.261745 z"
         id="path97"
         style="fill:#393139;stroke-width:1.30872" />
      <path
         class="st7"
         d="m 248.82174,59.97922 c 0,0 1.57047,-0.876845 3.53356,-2.643622 2.3557,-2.120133 2.85302,-3.140938 3.53355,-2.879193 0.74598,0.287919 -2.34261,6.622144 -3.65134,8.009391 -1.00771,1.060066 -1.26946,1.923824 -2.06778,0.196309 -0.79832,-1.727516 -3.53355,-0.955369 -1.34799,-2.682885 z"
         id="path98"
         style="fill:#393139;stroke-width:1.30872" />
    </g>
  </g>
</svg>
