<!--version="1.0" encoding="utf-8"-->

<svg
   version="1.1"
   width="100%"
   height=""
   viewBox="0 0 1010 400"
   id="svg1"
   sodipodi:docname="babwata-map.svg"
   inkscape:version="1.4.2 (2aeb623e1d, 2025-05-12)"
   xmlns:inkscape="http://www.inkscape.org/namespaces/inkscape"
   xmlns:sodipodi="http://sodipodi.sourceforge.net/DTD/sodipodi-0.dtd"
   xmlns="http://www.w3.org/2000/svg"
   xmlns:svg="http://www.w3.org/2000/svg">
  <defs
     id="defs1" />
  <sodipodi:namedview
     id="namedview1"
     pagecolor="#ffffff00"
     bordercolor="#000000"
     borderopacity="0.25"
     inkscape:showpageshadow="2"
     inkscape:pageopacity="0.0"
     inkscape:pagecheckerboard="0"
     inkscape:deskcolor="#d1d1d1"
     inkscape:zoom="0.56780675"
     inkscape:cx="323.17334"
     inkscape:cy="428.84309"
     inkscape:window-width="1920"
     inkscape:window-height="1011"
     inkscape:window-x="0"
     inkscape:window-y="0"
     inkscape:window-maximized="1"
     inkscape:current-layer="svg1" />

<style>
/*class selectors*/
  
  .map_reserves-1 {
    stroke-width: 0.5px;
    stroke: #39313950;
    fill: #39313950;
  }

  .map_reserves-1:hover {
      fill: #393139bf;
  }

  .map_reserve_text-1 {
    font-family: century-gothic;
    font-size: 24px;
    fill: none;
  }

  .map_regions-1 {
    stroke-width: 0.5px;
    stroke: #39313950;
    fill: none;
  }

  .map_locations-1 {
    stroke-width: 5;
    stroke: #393139;
    fill: #e48b46;
  }

  .map_location_text-1 {
    font-family: century-gothic;
    font-size: 22px;
    fill: #393139;
  }
  
  :has(#map_reserve_7-1:hover) :is(#map_reserve_text_7-1),
  :has(#map_reserve_13-1:hover) :is(#map_reserve_text_13-1) {
      fill: #393139;
  }
  </style>

  <path
     class="map_reserves-1"
     id="map_reserve_7-1"
     d="m 22.88788,272.95573 18.742407,21.95261 13.586624,-2.85351 1.815873,2.10771 1.329479,0.16213 2.399547,-0.71338 1.459184,-1.97801 2.172563,-1.19977 1.783447,-0.38912 2.269842,1.03765 0.940362,-0.38912 2.010432,-0.0324 1.653742,0.55125 1.621315,0.0973 10.830388,14.39728 -1.8483,3.24263 -12.354424,4.50726 -20.882544,-0.74581 1.588889,25.22767 371.962204,-71.92155 46.43447,0.6161 3.53447,-0.38912 21.5635,-6.58254 20.75284,2.10771 7.55533,-15.66191 20.49342,-10.47369 v -2.43198 l -12.74354,3.59932 -11.77075,-0.6161 -11.51134,-5.64217 4.44241,-45.85081 -0.90794,-1.10249 0.0648,-5.73946 z"
     style="stroke-width:3.24263" />
     <text class="map_reserve_text-1" id="map_reserve_text_7-1" x="180" y="350">Bwabwata National Park</text>
  <path
     class="map_reserves-1"
     id="map_reserve_13-1"
     d="m 761.5268,176.2929 -6.7771,15.14309 -0.32427,7.84716 -9.79274,26.26531 -11.83561,11.67348 -3.37233,4.70181 -5.51247,2.39955 -2.65896,9.95487 5.12336,-1.88072 -1.81588,4.66939 7.71746,-3.43719 3.79388,2.49682 5.60975,-1.07006 7.55533,5.64217 6.74468,10.31157 v 3.92358 l 5.44762,6.42041 5.25306,-2.04285 4.28027,3.43718 7.42563,0.4864 5.77188,-7.68504 4.60454,-10.18186 5.73945,-4.83152 5.28549,-6.74467 7.87959,-1.55646 3.30749,-5.02608 3.11292,-2.17256 -0.16213,-2.98322 3.63175,-3.14536 2.95079,2.49683 4.7991,-3.27506 4.60453,-2.65896 8.23629,-5.80431 4.02086,-2.20498 -4.183,-5.48005 -6.35555,1.32948 -20.9474,-8.20386 -1.55646,-2.91837 -3.66417,-0.6161 -0.45397,-3.17777 -7.06894,-2.36713 -8.88481,-8.2687 -11.05737,-6.35556 -8.26871,-6.32313 -5.12336,-7.29592 z"
     style="stroke-width:3.24263" />
     <text class="map_reserve_text-1" id="map_reserve_text_13-1" x="700" y="320">Salambala Conservancy</text>
  <path
     class="map_regions-1"
     id="map_region_8-1"
     d="m 283.9521,222.20855 0.68095,70.78664 139.33586,-26.97869 46.43447,0.6161 6.42041,5.31791 -2.62653,3.14536 6.74468,3.59932 -4.28028,2.65895 1.45919,4.21542 3.79387,2.20499 5.60976,8.10658 3.79387,4.40998 6.06372,10.76553 -2.30226,5.31792 12.51655,1.26462 1.32948,4.99366 3.76145,2.20498 7.58776,-0.32426 0.64853,4.99365 5.12335,2.04286 1.45919,11.0898 6.25827,4.70181 -0.97279,4.53969 2.4644,3.72902 -3.14535,1.55647 1.97801,4.21542 1.32948,4.37755 -2.78867,5.31791 4.60454,4.53969 -1.00522,5.93401 11.54377,4.99365 8.04172,-5.31791 8.56055,-10.60341 7.91202,0.12971 17.93175,-14.20272 3.46961,-8.59298 10.86282,-7.81474 8.56054,-9.9873 8.23629,-2.20499 2.4644,-5.15578 -2.62653,-3.11293 2.62653,-4.37755 9.20907,-3.92358 12.84082,-10.79797 7.26349,-3.43718 -0.32426,-4.05329 9.69546,1.55646 13.32722,-11.12222 5.12336,-7.97688 8.20385,-5.48004 8.23628,2.49682 7.2635,-3.89115 6.06372,6.25827 1.978,-7.5229 5.93402,-2.82109 5.93401,-7.5229 7.71746,-3.43719 3.79388,2.49682 5.60975,-1.07006 7.55533,5.64217 4.11815,6.87438 2.62653,3.43719 v 3.92358 l 5.44762,6.42041 5.25306,-2.04285 4.28027,3.43718 7.42563,0.4864 5.77188,-7.68504 4.60454,-10.18186 5.73945,-4.83152 5.28549,-6.74467 7.87959,-1.55646 3.30749,-5.02608 3.11292,-2.17256 -0.16213,-2.98322 3.63175,-3.14536 2.95079,2.49683 4.7991,-3.27506 4.60453,-2.65896 8.23629,-5.80431 6.74467,0.4864 9.3712,-5.35034 3.79388,-3.76145 5.57733,1.10249 6.42041,-6.25828 5.12335,-0.16213 -0.32426,2.20499 -4.28027,1.07007 2.14013,1.58889 2.30227,1.39433 -1.978,1.88073 4.92879,1.26462 2.62654,-3.30748 v 5.02608 l 3.46961,-0.32427 8.07415,-6.42041 2.14014,2.82109 -2.14014,3.46962 4.60454,1.71859 11.18708,-4.08571 2.95079,-5.15579 2.98322,1.55647 4.11814,-7.36078 11.8356,2.49683 12.51656,0.6161 -9.3712,-5.48005 -7.2635,0.16214 -8.23628,-6.42041 0.51882,-6.42041 -2.98322,-2.82109 -2.95079,2.01043 -1.16735,-4.70182 -8.04173,3.92359 2.30227,-9.07937 -3.63174,-2.36712 -3.27506,-5.80431 -2.82109,-1.88073 -0.64853,-3.59932 -1.978,-0.32426 -1.49161,4.40998 -1.81588,-1.88073 2.3347,-5.80431 -1.65374,-2.52925 -3.79388,-0.77823 -4.76667,3.43719 -3.79388,-4.53968 -1.978,-6.25828 -3.27506,-0.16213 -5.77188,3.43718 -0.32427,-4.86394 -8.56054,1.58889 -3.46962,-2.20499 -2.95079,-4.70182 -5.77188,0.94037 -7.06894,-2.36712 -7.26349,4.40997 -2.30227,-2.04285 -1.78345,-5.51248 -4.96122,2.20499 -6.09615,-2.65895 -5.57732,-1.88073 -8.39842,1.07007 -5.09093,-1.7186 -4.96123,1.42676 0.84309,2.98322 -2.82109,0.16213 -4.11814,4.70182 -11.99774,1.26462 -3.95601,-7.23106 -8.39841,1.71859 -6.74467,-6.2907 -8.07415,-2.98322 -5.73946,0.16213 -7.91202,-2.04286 -14.81882,5.51247 -11.83561,-1.88072 -2.33469,1.88072 -4.9288,-3.92358 z"
     style="stroke-width:3.24263" />
  <circle
     class="map_locations-1 clickable"
     id="map_location_7-1"
     cx="421.9689"
     cy="257.42471"
     r="14.59184" />
  <text
     class="map_location_text-1"
     id="map_location_text_7-1"
     x="430"
     y="300"
     style="stroke-width:3.">Buffalo Collection</text>
</svg>
